<?xml version="1.0" standalone="no"?>
<!DOCTYPE svg PUBLIC "-//W3C//DTD SVG 20010904//EN"
 "http://www.w3.org/TR/2001/REC-SVG-20010904/DTD/svg10.dtd">
<svg version="1.0" xmlns="http://www.w3.org/2000/svg"
 width="800.000000pt" height="800.000000pt" viewBox="0 0 800.000000 800.000000"
 preserveAspectRatio="xMidYMid meet">
<metadata>
Created by potrace 1.11, written by Peter Selinger 2001-2013
</metadata>
<g transform="translate(0.000000,800.000000) scale(0.100000,-0.100000)"
fill="#000000" stroke="none">
<path d="M3545 7153 c-93 -30 -233 -74 -310 -98 -77 -24 -198 -63 -270 -85
-71 -23 -188 -60 -260 -82 -71 -22 -131 -41 -132 -42 -2 -1 8 -36 21 -77 14
-41 48 -148 76 -239 29 -91 53 -166 54 -167 2 -2 22 3 47 11 172 56 272 86
275 83 3 -3 41 -134 94 -332 11 -38 33 -117 49 -175 16 -57 29 -105 28 -106
-1 -1 -51 -27 -112 -57 -93 -46 -200 -112 -315 -194 -28 -20 -72 -58 -141
-120 -25 -24 -51 -43 -58 -43 -16 0 -470 337 -508 378 -18 19 -30 39 -26 46 4
6 27 38 52 72 49 64 66 87 131 173 22 30 37 58 33 61 -5 3 -60 44 -123 90 -63
47 -117 87 -120 90 -11 12 -148 110 -153 110 -4 0 -57 -68 -119 -152 -211
-284 -537 -723 -545 -733 -5 -5 -19 -25 -33 -44 l-24 -34 30 -24 c16 -13 34
-27 39 -31 6 -4 81 -60 167 -124 87 -65 161 -118 165 -118 5 0 42 48 85 105
70 95 77 103 90 86 7 -10 92 -76 188 -147 96 -71 211 -156 256 -189 l81 -60
-38 -75 c-21 -41 -52 -111 -70 -155 -17 -44 -35 -89 -39 -100 -10 -22 -49
-155 -56 -189 -2 -12 -7 -34 -10 -51 -3 -16 -8 -46 -12 -65 l-8 -35 -307 -3
-307 -2 0 165 0 165 -258 0 -258 0 2 -597 c1 -329 2 -601 3 -605 0 -5 116 -8
256 -8 l255 0 1 23 c0 12 1 85 2 162 l2 140 294 3 c162 1 298 -1 302 -5 4 -5
11 -35 14 -68 4 -33 9 -63 11 -66 2 -3 6 -21 9 -40 16 -92 72 -268 119 -373
15 -33 23 -63 19 -67 -17 -15 -443 -300 -457 -305 -10 -4 -25 11 -46 48 -17
29 -48 81 -69 115 l-37 62 -213 -129 c-117 -71 -215 -131 -218 -134 -3 -2 45
-87 105 -188 61 -101 199 -331 307 -513 108 -181 198 -332 200 -334 2 -2 45
21 94 50 263 156 341 204 341 211 0 3 -43 78 -95 165 -89 148 -93 159 -77 174
9 9 120 85 245 169 l229 153 91 -91 c116 -115 179 -167 292 -244 50 -34 92
-63 94 -64 2 -2 -47 -125 -109 -273 l-112 -269 -97 35 c-235 84 -262 92 -266
80 -3 -7 -13 -37 -24 -67 -10 -30 -46 -133 -80 -228 l-60 -173 27 -10 c15 -5
36 -13 47 -18 11 -5 137 -50 280 -101 143 -50 283 -100 310 -110 112 -42 443
-159 460 -162 18 -3 24 11 145 360 l39 112 -32 13 c-18 7 -76 29 -129 47 -54
19 -98 37 -98 41 0 3 44 111 98 240 54 129 101 241 105 250 5 15 11 15 64 3
148 -35 262 -47 448 -48 105 -1 213 2 241 6 l52 7 52 -187 c28 -103 64 -232
80 -287 15 -55 25 -103 22 -107 -4 -3 -81 -30 -172 -58 -90 -28 -167 -53 -170
-56 -2 -3 5 -33 17 -67 11 -34 44 -136 73 -227 28 -91 53 -171 56 -178 2 -7 8
-11 13 -7 5 3 110 36 233 75 123 38 282 88 353 110 72 23 164 52 205 65 241
75 345 108 348 111 4 2 -145 475 -151 479 -1 2 -62 -17 -135 -40 -133 -43
-133 -43 -142 -21 -9 20 -150 530 -150 540 0 3 46 29 103 58 176 90 328 199
474 340 41 39 67 57 75 52 7 -4 114 -83 238 -174 124 -91 235 -173 248 -182
13 -9 19 -17 14 -19 -4 -2 -47 -57 -95 -121 l-86 -117 82 -61 c90 -67 94 -70
217 -161 47 -34 90 -66 96 -70 7 -6 39 29 91 99 44 59 203 271 353 472 150
201 277 370 281 376 6 8 -43 51 -153 132 -90 67 -167 125 -173 129 -5 5 -24
18 -41 30 l-31 22 -104 -139 c-57 -77 -107 -139 -111 -137 -4 1 -122 87 -263
190 l-255 188 35 69 c42 84 96 228 124 330 19 72 51 229 54 270 1 20 9 20 329
20 l328 0 0 -165 0 -165 258 0 257 0 3 604 2 605 -258 1 -258 0 0 -142 c1 -79
0 -153 -3 -165 l-3 -23 -334 0 -334 0 0 28 c0 62 -79 331 -132 452 -11 25 -27
60 -35 79 -8 18 -11 37 -6 41 13 12 531 360 536 360 2 0 41 -56 87 -125 46
-69 87 -125 91 -125 5 0 75 45 156 101 81 56 174 117 206 137 31 21 57 41 57
45 0 5 -74 117 -163 250 -389 575 -489 723 -501 735 -10 10 -38 -5 -149 -80
-75 -51 -170 -116 -212 -144 l-75 -51 95 -139 c52 -76 95 -141 95 -145 0 -4
-15 -16 -32 -27 -18 -11 -141 -92 -272 -181 -132 -89 -242 -161 -246 -161 -4
0 -18 12 -32 28 -101 111 -270 244 -426 338 -1 1 13 37 31 80 19 44 81 190
138 325 l103 247 40 -15 c23 -8 96 -34 164 -58 l123 -44 9 23 c5 13 38 108 75
212 36 104 70 200 76 213 10 25 3 41 -22 45 -8 1 -34 9 -59 19 -25 9 -101 36
-170 61 -283 100 -620 219 -700 247 -47 17 -106 39 -132 49 l-47 18 -15 -41
c-65 -177 -139 -387 -145 -412 l-7 -30 131 -47 c71 -26 136 -48 143 -48 6 0
12 -4 12 -8 0 -8 -126 -317 -150 -367 -5 -11 -30 -72 -56 -135 -26 -63 -48
-117 -50 -118 -1 -2 -27 1 -56 8 -142 31 -238 42 -403 45 -99 2 -206 0 -238
-4 l-57 -7 -11 40 c-6 23 -30 111 -54 196 -24 85 -53 189 -64 230 -11 41 -27
99 -35 128 -8 28 -13 52 -11 52 5 0 300 92 302 94 1 1 -25 87 -58 192 -33 104
-67 213 -76 242 -9 28 -19 52 -22 51 -3 0 -82 -25 -176 -56z"/>
</g>
</svg>
